<?xml version="1.0" encoding="utf-8"?>
<!-- Generator: Adobe Illustrator 25.4.1, SVG Export Plug-In . SVG Version: 6.00 Build 0)  -->
<svg version="1.1" id="dragon_x5F_logo" xmlns="http://www.w3.org/2000/svg" x="0px"
     y="0px" viewBox="0 0 512 512" style="enable-background:new 0 0 512 512;" xml:space="preserve">
<circle style="fill:#FF4155;" cx="255.5" cy="256.5" r="247.5"/>
<path style="fill:#543E5B;" d="M359,120c-25.95-63.83-38.99-88.67-45-99c-6.71-11.54-9.59-13.48-11-13c-2.3,0.79-1.75,8.32-1,15
	c1.39,12.44,4.47,30.8,12,55C329,92,344,106,359,120z"/>
<path style="fill:#422953;" d="M337,222c4.97,8.96,9.47,16.39,13,22c7.27,11.55,12.32,18.44,15,22c4.34,5.77,6.59,8.72,10,12
	c4.27,4.1,6.1,4.77,17,12c3.93,2.6,11.62,7.07,27,16c2.14,1.24,5.6,3.19,9,2c2.53-0.88,4.66-3.37,5-6c0.56-4.32-3.82-8.07-6-10
	c0,0-12.32-10.9-23-25c-6.3-8.32-9.11-16.14-13-27c-3.11-8.69-4.91-16.3-6-22c-1.13-0.28-2.87-0.67-5-1c-4.01-0.62-10.31-1.16-24,1
	C351.07,218.78,344.58,220,337,222z"/>
<path style="fill:#30144A;" d="M134.66,472.52C170.4,492.56,211.61,504,255.5,504c56.55,0,108.65-18.98,150.33-50.89
	c-1.63-7.64-3.84-15.72-6.83-24.11c-12.12-34-31.18-56.83-43-69c-68.33,19.67-136.67,39.33-205,59c0.16,8.28-0.67,22.89-8,39
	C140.45,463.61,137.55,468.44,134.66,472.52z"/>
<path style="fill:#422953;" d="M321,300c-9.58-7.5-17.88-12.86-23-16c-56.33,17.67-112.67,35.33-169,53c9.57,23.32,9.95,41.15,9,52
	c-1.46,16.71-3.27,37.38-10,50c-0.7,1.32-3.55,6.46-2,8c0.96,0.95,3.33,0.26,8-2c7.68-3.71,12.94-6.25,19-12
	c5.87-5.56,9.63-11.41,12-16c2.69,4.11,6.18,10.17,9,18c5.17,14.35,5.14,26.41,5,39c-0.06,4.94-0.34,10.86-1.11,17.57
	c14.54,4.8,29.67,8.29,45.27,10.33c6.08-7.7,12.89-18.29,17.84-31.9c3.39-9.33,5.12-17.9,6-25c1.52,6.25,2.88,12.92,4,20
	c2.23,14.13,3.05,27.23,3.06,38.98c0.48,0,0.96,0.02,1.44,0.02c7.44,0,14.79-0.35,22.06-0.99c3.47-11.56,6.73-25.71,8.44-42.01
	c1.97-18.71,1.36-35.06,0-48c5.41,8.27,11.28,18.95,16,32c7.37,20.38,9.15,38.91,9.16,52.71c7.01-1.61,13.9-3.53,20.67-5.73
	c1.43-7.86,2.58-16.55,3.18-25.99c1.14-18.19-0.09-34.14-2-47c5.42,11.83,10.8,24.5,16,38c3.27,8.49,6.25,16.77,8.99,24.84
	c6.02-2.74,11.91-5.73,17.66-8.93c0.53-13.99-0.35-32.29-5.66-52.91c-6.01-23.37-15.52-41.24-23-53c14.08,9.4,25.99,17.17,35,23
	c9.69,6.26,14.58,9.34,16,8c1.15-1.08,0.36-5.34-14-26C364.22,343.54,348.87,321.83,321,300z"/>
<path style="fill:#543E5B;" d="M79,263c12.91,21.02,23.23,37.91,30,49c7.91,12.96,15.38,25.24,27,41c0,0,15.54,21.09,43,36
	c0.9,0.49,3.12,1.76,4,1c1.35-1.17-1.75-6.1-5-14c-2.63-6.39-2.11-6.85-5-15c-1.6-4.52-4.15-11.1-8-19c10.84,9.84,22.83,20.25,36,31
	c0,0,12.64,10.33,43,26c2.01,1.04,6.7,3.4,8,2c1.02-1.1-0.51-4.05-1-5c-3.4-6.62-16.69-34.08-35-72c11.11,13.03,21.19,23.39,29,31
	c0,0,31.4,30.59,67,44c1.8,0.68,6.11,2.27,7,1c1-1.43-2.85-5.71-4-7c-11.59-13.09-19.42-29.09-30-43c-6.14-8.06-15.09-19.97-26-35
	c10.79,6.55,20.39,11.45,28,15c0,0,11.45,5.35,36,11c1.97,0.45,6.24,1.4,7,0c0.83-1.52-2.92-5.03-5-7c-7.01-6.66-12.96-14.38-20-21
	c-4.88-4.58-11.79-11.29-20-20c8.8,1.52,15.95,2.95,21,4c6.34,1.32,12.68,2.62,19,4c10.39,2.26,14.37,3.24,15,2
	c0.83-1.64-4.75-6.01-6-7c-11.13-8.79-49.2-41.87-104-90C179.67,225,129.33,244,79,263z"/>
<path style="fill:#665364;" d="M86,119c-5.76,7.05-13.44,18.06-19,33c-6.91,18.57-7.02,33.78-7,50c0.05,31.41,6.85,54.08,13,74
	c0,0,5.94,19.24,29,49c0.57,0.73,1.8,2.22,3,2c2.21-0.41,2.81-6.33,3-8c0.93-8.19,5.43-31.46,13-68c2.59,8.17,6.84,18.4,14,29
	c7.32,10.84,14.35,17.14,22,24c5.18,4.64,11.83,10.54,14,9c1.73-1.23-0.18-6.67-1-9c-4.36-12.44-10.35-30.2-18-53
	c9.79,13.45,19.38,23.68,27,31c0,0,15.3,14.7,36,23c1.92,0.77,6.65,2.62,8,1c0.69-0.83,0.25-2.26,0-3c-2.34-6.85-26.1-62.56-28-67
	c8.05,7.03,14,13.4,18,18c10.28,11.82,16.85,18.55,30,32c1.54,1.57,4.69,4.76,6,4c1.39-0.8-0.01-5.61-1-9
	c-6.29-21.6-9.44-32.43-10-34c-1.4-3.97-3.86-10.95-7-20c1.73,1.82,4.4,4.39,8,7c2.19,1.59,8.01,5.57,31,12c0,0,9.95,2.78,25,5
	c5.73,0.84,9.54,1.2,10,0c0.67-1.75-6.16-5.85-8-7c-15.12-9.46-42.67-38.27-50-72c-1.74-8-3.37-21.03,0-38
	C193.33,129,139.67,124,86,119z"/>
<path style="fill:#30144A;" d="M150,72c-6.55,1.59-45.99,11.59-71,38c-5.88,6.21-10.25,12.81-19,26c0,0-4.53,6.83-10,24
	c-0.44,1.39-1.45,4.64,0,6c1.28,1.21,3.89,0.37,5,0c5.68-1.89,25.84-9.49,53-20c-2.07,12.67-2.28,23.3-2,31
	c0.42,11.65,2.03,19.14,3,23c0.74,2.96,2.16,6.64,5,14c2,5.17,2.86,6.97,4,7c2.39,0.06,4.39-7.68,5-10c2.6-9.88,7.47-25.73,17-53
	c-0.5,10.44,0.73,19.02,2,25c2.96,13.93,8.2,23.36,13,32c0.65,1.16,4.06,7.23,10,14c3.46,3.95,7.88,8.99,10,8
	c2.44-1.14,0.65-9.73,0-13c-2.15-10.86-4.45-27.37-5-52c4.4,8.47,9.24,14.75,13,19c8.46,9.58,15.66,13.75,23,18
	c4.88,2.83,8.41,4.33,10,3c1.73-1.45,0.4-5.61,0-7c-4.37-15.04,2.27-37.73,5-45c2.33-6.19,8.12-17.96,24-29
	C213.33,111.33,181.67,91.67,150,72z"/>
<path style="fill:#422953;" d="M259,56c-40-15-80-30-120-45c-0.67-0.34-5.43-2.66-7-1c-0.91,0.96-0.37,2.86,0,4
	c4.78,14.6,16,25,16,25c3.88,3.6,9.81,8.46,18,13c-7.23-0.11-79.98-1.19-98-1c-2.17,0.02-7.49,0.12-8,2c-0.47,1.77,3.54,4.28,8,7
	c12.83,7.83,19.24,11.75,22,13c12.72,5.77,23.26,8.23,31,10c9.26,2.12,21.83,4.31,37,5c-15,11-30,22-45,33c-1.98,1.34-4.36,3.29-4,5
	c0.68,3.25,10.88,3.69,18,4c7.97,0.34,16.2,0.7,27-2c8.02-2,14.71-5.01,20-8c-7.53,12.22-12.9,20.29-17,26c-1.28,1.79-4.34,5.99-3,8
	c0.97,1.45,3.81,1.14,5,1c28.36-3.43,44-10,44-10c8.08-3.4,20.6-8.57,37-15C246.33,105.33,252.67,80.67,259,56z"/>
<path style="fill:#543E5B;" d="M385,218c-10.66-1.28-19.17-0.74-25,0c-9.95,1.27-13.7,3.32-25.9,4.49
	c-2.22,0.21-9.11,0.89-18.1,0.51c-8.67-0.37-18.71-0.86-31-5c-4.29-1.44-23.53-7.92-37-23c-25.66-28.73-15.14-71.65-14-76
	c-8.02,0.09-14.8-0.41-20-1c0,0-8.47-0.96-18-5c-2.35-1-5.03-2.3-5-4c0.03-1.47,2.07-2.56,3-3c12-5,24-10,36-15
	c-11.48-0.83-19.44-4.43-24-7c-11-6.21-22-17.64-20-21c0.46-0.78,1.52-0.94,2-1c6.4-0.85,29.96-1.25,62-1
	c-4.73-9.33-7.88-17.6-10-24c0,0-3.52-10.64-3-26c0.04-1.15,0.2-2.72,1-3c0.74-0.26,1.7,0.71,2,1c2.1,2.07,17.09,15.84,38,35
	c-14.53,30.41-18.13,56.68-19,73c-1.01,18.82-1.93,41.58,12,56c7.87,8.15,19,13,19,13c8.57,3.73,15.85,4.5,21,5
	c47.89,4.65,60.08,4.83,68,14C380.85,207.15,383.64,211.14,385,218z"/>
<path style="fill:#665364;" d="M463,216c4.43-2.68,15.47-8.84,20-5c2.02,1.71,2,4.78,2,6c-0.03,9.7,0.09,32.81,0,64
	c0.32,7.71-5.53,13.84-12,14c-5.11,0.13-10.1-3.49-12-9c-0.9-5.75-6.08-35.2-33-54c-17.43-12.17-35.23-13.77-43-14
	c-2.04-6.16-4.98-9.89-7-12c-9.61-10.05-22.51-8.76-67-14c-6.36-0.75-14.05-1.72-23-6c-9.45-4.52-15.67-10.5-18-13
	c-13.98-14.96-13.01-37.77-12-56c0.88-15.91,4.55-42.41,20-73c31.67,29.67,63.33,59.33,95,89c1.99,1.38,6.37,4.83,9,11
	c1.94,4.57,2.09,8.67,2,11c0.13,2.21,0.55,5.44,2,9c4.64,11.4,15.93,16.56,21,19C420.92,189.7,439.02,200.47,463,216z"/>
</svg>
