<?xml version="1.0" encoding="utf-8"?>
<svg version="1.1" id="Layer_1" xmlns="http://www.w3.org/2000/svg" xmlns:xlink="http://www.w3.org/1999/xlink" x="0px" y="0px"
	 viewBox="0 0 256 256" style="enable-background:new 0 0 256 256;" xml:space="preserve">
<style type="text/css">
	.st0{fill:#FFFFFF;}
	.st1{fill:#EF382C;}
	.st2{fill:#444245;}
</style>
<path class="st0" d="M178.9,252.9H77.1c-40.9,0-73.9-33.1-73.9-73.9V77.1c0-40.9,33.1-73.9,73.9-73.9h101.8
	c40.9,0,73.9,33.1,73.9,73.9v101.8C252.9,219.8,219.8,252.9,178.9,252.9z"/>
<path id="laravel_x5F_logo" class="st1" d="M235.1,67.5c0-0.1-0.1-0.2-0.1-0.3c-0.1-0.2-0.2-0.4-0.2-0.6c-0.1-0.1-0.2-0.2-0.2-0.3
	c-0.1-0.2-0.2-0.3-0.3-0.4c-0.1-0.1-0.2-0.2-0.3-0.2c-0.2-0.1-0.2-0.2-0.4-0.3l0,0l0,0l-41.6-23.9c-1.1-0.6-2.4-0.6-3.5,0
	l-41.5,23.9l0,0l0,0c-0.2,0.1-0.2,0.2-0.4,0.3c-0.1,0.1-0.2,0.2-0.3,0.2c-0.1,0.1-0.2,0.2-0.3,0.4c-0.1,0.1-0.2,0.2-0.2,0.3
	s-0.2,0.3-0.2,0.6c-0.1,0.1-0.1,0.2-0.1,0.3c-0.1,0.3-0.1,0.6-0.1,0.9v45.5l-34.6,20V44.9c0-0.3-0.1-0.6-0.1-0.9
	c0-0.1-0.1-0.2-0.1-0.3c-0.1-0.2-0.2-0.4-0.2-0.6c-0.1-0.1-0.2-0.2-0.2-0.3c-0.1-0.2-0.2-0.3-0.3-0.4c-0.1-0.1-0.2-0.2-0.3-0.2
	c-0.2-0.1-0.2-0.2-0.4-0.3l0,0l0,0L67.5,18c-1.1-0.6-2.4-0.6-3.5,0L22.5,41.9l0,0l0,0c-0.2,0.1-0.2,0.2-0.4,0.3
	c-0.1,0.1-0.2,0.2-0.3,0.2c-0.2,0.2-0.2,0.2-0.3,0.4c-0.1,0.1-0.2,0.2-0.2,0.3c-0.1,0.2-0.2,0.3-0.2,0.6c-0.1,0.1-0.1,0.2-0.2,0.3
	c-0.1,0.3-0.2,0.6-0.2,0.9v142.3c0,1.3,0.6,2.4,1.7,3l83.1,47.8c0.2,0.1,0.4,0.2,0.6,0.2c0.1,0,0.2,0.1,0.2,0.1
	c0.3,0.1,0.6,0.1,0.9,0.1s0.6,0,0.9-0.1c0.1,0,0.2-0.1,0.2-0.1c0.2-0.1,0.4-0.2,0.6-0.2l83.1-47.8c1.1-0.6,1.7-1.7,1.7-3v-45.5
	l39.8-22.9c1.1-0.6,1.7-1.7,1.7-3V68.4C235.2,68.1,235.2,67.8,235.1,67.5z M107.1,183.2l-34.5-19.6l36.3-20.9l0,0l39.8-22.9
	l34.6,19.9l-25.3,14.5L107.1,183.2z M186.7,94.3v39.4l-14.5-8.4l-20.1-11.6V74.4l14.6,8.4L186.7,94.3z M190.2,48.5l34.6,20l-34.6,20
	l-34.6-20L190.2,48.5z M83.6,149.3L69,157.7V70.8l20.1-11.6l14.6-8.4v86.9L83.6,149.3z M65.5,25l34.6,20L65.5,64.8l-34.6-20L65.5,25
	z M27.4,50.9L42,59.3l20.1,11.6v92.8l0,0l0,0c0,0.2,0.1,0.2,0.1,0.4s0,0.3,0.1,0.5l0,0c0.1,0.2,0.1,0.2,0.2,0.4
	c0.1,0.2,0.1,0.3,0.2,0.4l0,0c0.1,0.1,0.2,0.2,0.2,0.3c0.1,0.2,0.2,0.2,0.3,0.4l0,0c0.1,0.1,0.2,0.2,0.3,0.2
	c0.2,0.1,0.2,0.2,0.4,0.3l0,0l0,0l39.8,22.5v39.8l-76.2-43.7V50.9z M186.7,185.2l-76.2,43.9v-39.8l56.4-32.2l19.8-11.2V185.2
	L186.7,185.2z M228.3,113.8l-34.6,20V94.3l20.1-11.6l14.6-8.4L228.3,113.8L228.3,113.8z"/>
<g id="letter_x5F_down">
	<path class="st2" d="M180.4,177.2L180.4,177.2c-0.6,2.1-1.2,4.2-1.8,6.3l-3.4,10.1h10.5l-3.4-10
		C181.4,181.2,180.9,179.2,180.4,177.2z"/>
	<path class="st2" d="M217.1,170.8h-4.5h-0.1c-2.6-5.2-5.2-10.5-7.8-15.7c-2.5,5.2-5.1,10.5-7.7,15.7h-52.3c-1.9,0-3.4,1.5-3.4,3.4
		V207c0,1.9,1.5,3.4,3.4,3.4h72.4c1.9,0,3.4-1.5,3.4-3.4v-32.8C220.5,172.3,219,170.8,217.1,170.8z M190.2,207.8l-3.7-10.9h-12.3
		l-3.6,10.9H166l11.8-34.7h5.4l11.8,34.7H190.2z"/>
</g>
<path id="letter_x5F_up" class="st2" d="M189.4,118.7H117c-1.9,0-3.4,1.5-3.4,3.4v32.8c0,1.9,1.5,3.4,3.4,3.4h4.5h0.1
	c2.6,5.2,5.2,10.5,7.8,15.7c2.5-5.2,5.1-10.5,7.7-15.7h52.3c1.9,0,3.4-1.5,3.4-3.4v-32.8C192.8,120.2,191.3,118.7,189.4,118.7z
	 M168.2,131.2c-1.8,0-3.6,0-5.5,0.1c-0.4,1.6-1.1,3.6-2.2,5.7c-1.5,2.9-3.3,5-4.8,6.4c1.7,1.4,3.2,2.9,4.9,4.4
	c-0.6,1.3-1.2,2.5-1.7,3.7c-1.9-1.8-3.8-3.6-5.7-5.5c-3.1,2.9-6.1,5.9-9.2,8.9c-0.7-0.8-1.4-1.7-2.2-2.5c3-3,6.1-5.9,9.1-9
	c-1-1.1-2.1-2.5-3.1-3.9c-1.1-1.6-2.1-3.2-2.9-4.6c1.3,0,2.6,0,4,0c1.3,1.9,2.8,3.8,4.1,5.7c1.2-1.2,2.7-3,4-5.5
	c0.7-1.4,1.2-2.8,1.6-3.9h-20.5V127h13.5v-3.3h3.9v3.3h12.8V131.2z"/>
</svg>
